{
    "asset" : {
        "generator" : "Khronos glTF Blender I/O v3.2.40",
        "version" : "2.0"
    },
    "scene" : 0,
    "scenes" : [
        {
            "name" : "Scene",
            "nodes" : [
                0
            ]
        }
    ],
    "nodes" : [
        {
            "extras" : {
                "currentUVSet" : "UVMap"
            },
            "mesh" : 0,
            "name" : "Tree_02",
            "rotation" : [
                0.7071068286895752,
                0,
                0,
                0.7071067094802856
            ],
            "scale" : [
                0.18250557780265808,
                0.18250557780265808,
                0.18250557780265808
            ]
        }
    ],
    "materials" : [
        {
            "doubleSided" : true,
            "name" : "lambert1.001",
            "pbrMetallicRoughness" : {
                "baseColorFactor" : [
                    0.5,
                    0.5,
                    0.5,
                    1
                ],
                "metallicFactor" : 0,
                "roughnessFactor" : 0.5527864098548889
            }
        }
    ],
    "meshes" : [
        {
            "name" : "Mesh.009",
            "primitives" : [
                {
                    "attributes" : {
                        "POSITION" : 0,
                        "NORMAL" : 1,
                        "TEXCOORD_0" : 2
                    },
                    "indices" : 3,
                    "material" : 0
                }
            ]
        }
    ],
    "accessors" : [
        {
            "bufferView" : 0,
            "componentType" : 5126,
            "count" : 1472,
            "max" : [
                3.272965431213379,
                3.326902389526367,
                0.056681692600250244
            ],
            "min" : [
                -3.272966146469116,
                -3.326901435852051,
                -16.230600357055664
            ],
            "type" : "VEC3"
        },
        {
            "bufferView" : 1,
            "componentType" : 5126,
            "count" : 1472,
            "type" : "VEC3"
        },
        {
            "bufferView" : 2,
            "componentType" : 5126,
            "count" : 1472,
            "type" : "VEC2"
        },
        {
            "bufferView" : 3,
            "componentType" : 5123,
            "count" : 2256,
            "type" : "SCALAR"
        }
    ],
    "bufferViews" : [
        {
            "buffer" : 0,
            "byteLength" : 17664,
            "byteOffset" : 0
        },
        {
            "buffer" : 0,
            "byteLength" : 17664,
            "byteOffset" : 17664
        },
        {
            "buffer" : 0,
            "byteLength" : 11776,
            "byteOffset" : 35328
        },
        {
            "buffer" : 0,
            "byteLength" : 4512,
            "byteOffset" : 47104
        }
    ],
    "buffers" : [
        {
            "byteLength" : 51616,
            "uri" : "Tree_02.bin"
        }
    ]
}
