{
    "asset" : {
        "generator" : "Khronos glTF Blender I/O v3.2.40",
        "version" : "2.0"
    },
    "scene" : 0,
    "scenes" : [
        {
            "name" : "Scene",
            "nodes" : [
                0
            ]
        }
    ],
    "nodes" : [
        {
            "extras" : {
                "currentUVSet" : "map1"
            },
            "mesh" : 0,
            "name" : "Arbol_03",
            "rotation" : [
                0.7071068286895752,
                0,
                0,
                0.7071067094802856
            ],
            "scale" : [
                0.18250557780265808,
                0.18250557780265808,
                0.18250557780265808
            ]
        }
    ],
    "materials" : [
        {
            "doubleSided" : true,
            "name" : "lambert1.002",
            "pbrMetallicRoughness" : {
                "baseColorFactor" : [
                    0.5,
                    0.5,
                    0.5,
                    1
                ],
                "metallicFactor" : 0,
                "roughnessFactor" : 0.5527864098548889
            }
        }
    ],
    "meshes" : [
        {
            "name" : "Mesh.013",
            "primitives" : [
                {
                    "attributes" : {
                        "POSITION" : 0,
                        "NORMAL" : 1,
                        "TANGENT" : 2,
                        "TEXCOORD_0" : 3
                    },
                    "indices" : 4,
                    "material" : 0
                }
            ]
        }
    ],
    "accessors" : [
        {
            "bufferView" : 0,
            "componentType" : 5126,
            "count" : 918,
            "max" : [
                4.8176727294921875,
                4.961679935455322,
                8.926540613174438e-05
            ],
            "min" : [
                -4.72830867767334,
                -5.303290843963623,
                -21.424341201782227
            ],
            "type" : "VEC3"
        },
        {
            "bufferView" : 1,
            "componentType" : 5126,
            "count" : 918,
            "type" : "VEC3"
        },
        {
            "bufferView" : 2,
            "componentType" : 5126,
            "count" : 918,
            "type" : "VEC4"
        },
        {
            "bufferView" : 3,
            "componentType" : 5126,
            "count" : 918,
            "type" : "VEC2"
        },
        {
            "bufferView" : 4,
            "componentType" : 5123,
            "count" : 918,
            "type" : "SCALAR"
        }
    ],
    "bufferViews" : [
        {
            "buffer" : 0,
            "byteLength" : 11016,
            "byteOffset" : 0
        },
        {
            "buffer" : 0,
            "byteLength" : 11016,
            "byteOffset" : 11016
        },
        {
            "buffer" : 0,
            "byteLength" : 14688,
            "byteOffset" : 22032
        },
        {
            "buffer" : 0,
            "byteLength" : 7344,
            "byteOffset" : 36720
        },
        {
            "buffer" : 0,
            "byteLength" : 1836,
            "byteOffset" : 44064
        }
    ],
    "buffers" : [
        {
            "byteLength" : 45900,
            "uri" : "Tree_03.bin"
        }
    ]
}
